@startuml FACTORY METHOD

class Creator {
    + factoryMethod()
    + anOperation()
}

class ConcreteCreator {
    + factoryMethod()
}

interface Product

class ConcreteProduct

hide empty members

Product <|-- ConcreteProduct
Creator <|-- ConcreteCreator
ConcreteProduct <. ConcreteCreator

note as N1
    <b><color:royalBlue>Factory Method</color></b>
    <b>Type:</b> Creational
    Define an interface for creating an object,
    but let subclasses decide which class to instantiate.
    Lets a class defer instantiation to subclasses.
end note

@enduml
